<svg width="49" height="30" viewBox="0 0 49 30" fill="none" xmlns="http://www.w3.org/2000/svg">
<path d="M31.2567 5.00606H43.9683V1.36418H31.2567V5.00606Z" fill="#DADADA"/>
<path fill-rule="evenodd" clip-rule="evenodd" d="M22.6063 3.11843C21.0964 1.09145 18.5366 0.0529019 14.9184 0H0.583923V29.2631H13.9503C15.4574 29.2631 16.8517 29.135 18.1415 28.8705C19.4312 28.6032 20.5461 28.116 21.4915 27.4004C22.3326 26.7767 23.0325 26.0083 23.5913 25.0978C24.4747 23.7223 24.915 22.1659 24.915 20.4313C24.915 18.7496 24.5283 17.3184 23.7607 16.1434C22.9845 14.9657 21.8443 14.1053 20.3316 13.5596C21.3278 13.0584 22.0814 12.5016 22.595 11.8946C23.5123 10.8087 23.9667 9.36921 23.9667 7.58447C23.9667 5.84984 23.5123 4.36302 22.6063 3.11843ZM6.49659 5.08134H12.954C14.3736 5.08134 15.5421 5.23448 16.4621 5.53797C17.5233 5.97789 18.0539 6.87722 18.0539 8.24432C18.0539 9.46942 17.6503 10.327 16.8488 10.8115C16.0416 11.2959 14.9945 11.5382 13.7104 11.5382H6.49659V5.08134ZM13.8007 16.3793H6.49659V24.1837H13.6991C14.9861 24.1837 15.9908 24.0111 16.7048 23.6686C18.0059 23.0283 18.6551 21.8143 18.6551 20.0156C18.6551 18.4898 18.0285 17.4457 16.7669 16.8749C16.0614 16.5575 15.0707 16.3904 13.8007 16.3793Z" fill="#DADADA"/>
<path fill-rule="evenodd" clip-rule="evenodd" d="M37.6886 7.04613C39.5993 7.04613 41.3181 7.38581 42.8478 8.0624C44.3803 8.7362 45.6419 9.80538 46.6353 11.2644C47.5413 12.5507 48.1227 14.0431 48.388 15.7388C48.5432 16.73 48.6053 18.1667 48.5799 20.0349H32.5972C32.6932 22.2039 33.4496 23.7269 34.8946 24.5984C35.7695 25.1414 36.8222 25.4142 38.0584 25.4142C39.3594 25.4142 40.4235 25.0829 41.2391 24.423C41.6878 24.0638 42.083 23.5682 42.4216 22.9334H48.2779C48.1227 24.2142 47.4115 25.52 46.1527 26.8454C44.1884 28.9475 41.4367 30 37.9003 30C34.9792 30 32.4025 29.1146 30.1757 27.3382C27.9376 25.5646 26.8256 22.6745 26.8256 18.6762C26.8256 14.9257 27.8332 12.0495 29.8455 10.0476C31.8634 8.05126 34.474 7.04613 37.6886 7.04613ZM37.6914 11.7155C36.2238 11.7155 35.078 12.1275 34.268 12.9517C33.458 13.7759 32.9471 14.8924 32.7383 16.3012H42.6248C42.5204 14.7977 42.0067 13.6617 41.0979 12.8793C40.1779 12.1025 39.0461 11.7155 37.6914 11.7155Z" fill="#DADADA"/>
</svg>
