<svg width="41" height="40" viewBox="0 0 41 40" fill="none" xmlns="http://www.w3.org/2000/svg">
<path fill-rule="evenodd" clip-rule="evenodd" d="M10.315 19.9997C10.315 14.3277 14.9138 9.7289 20.586 9.7289C26.2581 9.7289 30.8552 14.3277 30.8552 19.9997C30.8552 25.6718 26.2581 30.2685 20.586 30.2685C14.9138 30.2685 10.315 25.6718 10.315 19.9997ZM27.2526 19.9997C27.2526 16.3176 24.2676 13.333 20.5859 13.333C16.9038 13.333 13.9192 16.3176 13.9192 19.9997C13.9192 23.6813 16.9038 26.6663 20.5859 26.6663C24.2676 26.6663 27.2526 23.6813 27.2526 19.9997Z" fill="#DADADA"/>
<path d="M31.2619 6.9252C29.9369 6.9252 28.8619 7.99895 28.8619 9.32437C28.8619 10.6494 29.9369 11.7244 31.2619 11.7244C32.5869 11.7244 33.6619 10.6494 33.6619 9.32437C33.6619 7.99937 32.5869 6.9252 31.2619 6.9252Z" fill="#DADADA"/>
<path fill-rule="evenodd" clip-rule="evenodd" d="M12.339 0.120833C14.4724 0.02375 15.1541 0 20.5858 0H20.5795C26.0129 0 26.6921 0.02375 28.8255 0.120833C30.9547 0.218333 32.4088 0.555417 33.6838 1.05C35.0005 1.56042 36.113 2.24375 37.2256 3.35625C38.3381 4.46792 39.0214 5.58375 39.5339 6.89917C40.0256 8.17083 40.3631 9.62417 40.4631 11.7533C40.5589 13.8867 40.5839 14.5683 40.5839 20C40.5839 25.4317 40.5589 26.1117 40.4631 28.245C40.3631 30.3733 40.0256 31.8271 39.5339 33.0992C39.0214 34.4142 38.3381 35.53 37.2256 36.6417C36.1143 37.7542 35.0001 38.4392 33.6851 38.95C32.4126 39.4446 30.9576 39.7817 28.8284 39.8792C26.695 39.9762 26.0154 40 20.5833 40C15.152 40 14.4707 39.9762 12.3374 39.8792C10.2086 39.7817 8.75484 39.4446 7.48233 38.95C6.16773 38.4392 5.05189 37.7542 3.94062 36.6417C2.82853 35.53 2.14519 34.4142 1.63393 33.0987C1.13976 31.8271 0.802676 30.3737 0.704758 28.2446C0.60809 26.1112 0.583923 25.4317 0.583923 20C0.583923 14.5683 0.608924 13.8862 0.704341 11.7529C0.800176 9.62458 1.13768 8.17083 1.63352 6.89875C2.14602 5.58375 2.82936 4.46792 3.94187 3.35625C5.05355 2.24417 6.1694 1.56083 7.48483 1.05C8.75651 0.555417 10.2099 0.218333 12.339 0.120833ZM19.9194 3.60432C19.5149 3.60413 19.1402 3.60397 18.7918 3.60451V3.59951C15.0642 3.60368 14.3492 3.62868 12.5042 3.71201C10.5542 3.80159 9.49543 4.12659 8.79042 4.40159C7.85708 4.76493 7.1904 5.19826 6.4904 5.89826C5.79039 6.59826 5.35622 7.26493 4.99371 8.19826C4.71996 8.90326 4.39413 9.96159 4.30496 11.9116C4.20912 14.0199 4.18996 14.6499 4.18996 19.9908C4.18996 25.3316 4.20912 25.9649 4.30496 28.0733C4.39371 30.0233 4.71996 31.0816 4.99371 31.7858C5.35705 32.7195 5.79039 33.3845 6.4904 34.0845C7.1904 34.7845 7.85708 35.2178 8.79042 35.5803C9.49584 35.8541 10.5542 36.1799 12.5042 36.2699C14.6126 36.3658 15.2455 36.3866 20.586 36.3866C25.926 36.3866 26.5594 36.3658 28.6677 36.2699C30.6177 36.1808 31.6769 35.8558 32.3811 35.5808C33.3148 35.2183 33.9794 34.7849 34.6794 34.0849C35.3794 33.3853 35.8136 32.7208 36.1761 31.7874C36.4499 31.0833 36.7757 30.0249 36.8649 28.0749C36.9607 25.9666 36.9815 25.3333 36.9815 19.9958C36.9815 14.6583 36.9607 14.0249 36.8649 11.9166C36.7761 9.96659 36.4499 8.90826 36.1761 8.20409C35.8128 7.27076 35.3794 6.60409 34.6794 5.90409C33.9798 5.20409 33.3144 4.77076 32.3811 4.40826C31.6761 4.13451 30.6177 3.80868 28.6677 3.71951C26.5589 3.62368 25.926 3.60451 20.586 3.60451C20.3552 3.60451 20.1331 3.60441 19.9194 3.60432Z" fill="#DADADA"/>
</svg>
