<svg width="38" height="36" viewBox="0 0 38 36" fill="none" xmlns="http://www.w3.org/2000/svg">
<path d="M8.90994 11.8845H1.05016V35.4999H8.90994V11.8845Z" fill="#DADADA"/>
<path d="M9.42763 4.57907C9.37661 2.2636 7.72081 0.5 5.03203 0.5C2.34325 0.5 0.585419 2.2636 0.585419 4.57907C0.585419 6.84658 2.29129 8.66096 4.93 8.66096H4.98023C7.72081 8.66096 9.42763 6.84658 9.42763 4.57907Z" fill="#DADADA"/>
<path d="M37.2553 21.959C37.2553 14.7054 33.3778 11.3295 28.2057 11.3295C24.0327 11.3295 22.1643 13.6216 21.1212 15.2296V11.8846H13.2605C13.364 14.1006 13.2605 35.5 13.2605 35.5H21.1212V22.3112C21.1212 21.6054 21.1722 20.9014 21.38 20.3961C21.948 18.9861 23.2414 17.5262 25.4129 17.5262C28.2581 17.5262 29.3955 19.6917 29.3955 22.8651V35.4994H37.2549L37.2553 21.959Z" fill="#DADADA"/>
</svg>
