<svg width="142" height="27" viewBox="0 0 142 27" fill="none" xmlns="http://www.w3.org/2000/svg">
<path d="M0 27V0H8.99802V1.98252H2.56498V25.0175H8.99802V27H0Z" fill="white"/>
<path d="M27.3265 16.8581C27.1802 17.5954 26.9241 18.2787 26.5583 18.9081C26.2109 19.5375 25.7628 20.0859 25.2141 20.5534C24.6655 21.003 24.0254 21.3536 23.2938 21.6054C22.5623 21.8571 21.7484 21.983 20.8523 21.983C19.9013 21.983 18.996 21.8302 18.1364 21.5245C17.2951 21.2188 16.5545 20.7782 15.9143 20.2028C15.2742 19.6094 14.7622 18.8901 14.3781 18.045C14.0123 17.1998 13.8294 16.2288 13.8294 15.1319V14.8082C13.8294 13.7293 14.0123 12.7582 14.3781 11.8951C14.7622 11.032 15.2742 10.3037 15.9143 9.71029C16.5545 9.11688 17.2951 8.65834 18.1364 8.33467C18.996 8.01099 19.9013 7.84915 20.8523 7.84915C21.7119 7.84915 22.5074 7.97502 23.239 8.22677C23.9705 8.47852 24.6106 8.83816 25.1593 9.30569C25.7262 9.75525 26.1834 10.2947 26.5309 10.9241C26.8967 11.5534 27.1436 12.2368 27.2716 12.974L25.1318 13.4595C25.077 12.992 24.9398 12.5425 24.7203 12.1109C24.5192 11.6613 24.2357 11.2747 23.8699 10.951C23.5224 10.6094 23.0926 10.3397 22.5806 10.1419C22.0685 9.94406 21.4741 9.84515 20.7974 9.84515C20.139 9.84515 19.5172 9.97103 18.932 10.2228C18.365 10.4565 17.8621 10.7982 17.4232 11.2478C16.9842 11.6793 16.6367 12.2008 16.3807 12.8122C16.143 13.4236 16.0241 14.0889 16.0241 14.8082V15.1319C16.0241 15.8871 16.143 16.5704 16.3807 17.1818C16.6367 17.7752 16.9842 18.2787 17.4232 18.6923C17.8621 19.1059 18.3742 19.4296 18.9594 19.6633C19.5446 19.8791 20.1756 19.987 20.8523 19.987C21.529 19.987 22.1142 19.8881 22.608 19.6903C23.1201 19.4745 23.5499 19.2048 23.8973 18.8811C24.2631 18.5395 24.5466 18.1528 24.7478 17.7213C24.9672 17.2897 25.1135 16.8402 25.1867 16.3726L27.3265 16.8581Z" fill="white"/>
<path d="M44.2335 15.0779C44.2335 16.1928 44.0415 17.1818 43.6575 18.045C43.2917 18.8901 42.7979 19.6094 42.1761 20.2028C41.5543 20.7782 40.8227 21.2188 39.9814 21.5245C39.1584 21.8302 38.2989 21.983 37.4027 21.983C36.4883 21.983 35.6196 21.8302 34.7966 21.5245C33.9736 21.2188 33.2512 20.7782 32.6294 20.2028C32.0076 19.6094 31.5046 18.8901 31.1206 18.045C30.7548 17.1818 30.5719 16.1928 30.5719 15.0779V14.7542C30.5719 13.6573 30.7548 12.6863 31.1206 11.8412C31.5046 10.978 32.0076 10.2498 32.6294 9.65634C33.2695 9.06294 34.001 8.61339 34.824 8.30769C35.647 8.002 36.5066 7.84915 37.4027 7.84915C38.2989 7.84915 39.1584 8.002 39.9814 8.30769C40.8044 8.61339 41.5268 9.06294 42.1486 9.65634C42.7887 10.2498 43.2917 10.978 43.6575 11.8412C44.0415 12.6863 44.2335 13.6573 44.2335 14.7542V15.0779ZM37.4027 19.987C38.0611 19.987 38.6646 19.8791 39.2133 19.6633C39.7803 19.4296 40.2741 19.0969 40.6947 18.6653C41.1153 18.2338 41.4445 17.7213 41.6823 17.1279C41.92 16.5165 42.0389 15.8332 42.0389 15.0779V14.7542C42.0389 14.035 41.92 13.3786 41.6823 12.7852C41.4445 12.1738 41.1153 11.6523 40.6947 11.2208C40.2741 10.7892 39.7803 10.4565 39.2133 10.2228C38.6464 9.97103 38.0428 9.84515 37.4027 9.84515C36.7626 9.84515 36.1591 9.97103 35.5922 10.2228C35.0252 10.4565 34.5314 10.7892 34.1108 11.2208C33.6901 11.6523 33.3609 12.1738 33.1232 12.7852C32.8854 13.3786 32.7666 14.035 32.7666 14.7542V15.0779C32.7666 15.8332 32.8854 16.5165 33.1232 17.1279C33.3609 17.7213 33.6901 18.2338 34.1108 18.6653C34.5314 19.0969 35.0161 19.4296 35.5647 19.6633C36.1317 19.8791 36.7443 19.987 37.4027 19.987Z" fill="white"/>
<path d="M50.332 21.6054H48.1923V8.22677H50.332V10.4925H50.6612C51.5025 8.73027 52.9656 7.84915 55.0505 7.84915C56.6233 7.84915 57.8761 8.33467 58.8088 9.30569C59.7415 10.2587 60.2079 11.6973 60.2079 13.6214V21.6054H58.0681V14.0529C58.0681 12.6503 57.7481 11.5984 57.108 10.8971C56.4679 10.1958 55.5992 9.84515 54.5018 9.84515C53.2034 9.84515 52.1792 10.2857 51.4293 11.1668C50.6978 12.03 50.332 13.1898 50.332 14.6464V21.6054Z" fill="white"/>
<path d="M67.8152 11.6793C67.8152 12.3267 68.0895 12.8212 68.6382 13.1628C69.2051 13.5045 70.2293 13.7293 71.7107 13.8372C73.3018 13.963 74.5089 14.3407 75.3318 14.97C76.1731 15.5814 76.5938 16.4805 76.5938 17.6673V17.8292C76.5938 18.4765 76.4566 19.0609 76.1823 19.5824C75.9262 20.0859 75.5604 20.5175 75.0849 20.8771C74.6277 21.2368 74.0608 21.5065 73.3841 21.6863C72.7257 21.8841 72.0033 21.983 71.2169 21.983C70.1562 21.983 69.2417 21.8482 68.4736 21.5784C67.7238 21.2907 67.0928 20.9221 66.5807 20.4725C66.0869 20.005 65.712 19.4835 65.456 18.9081C65.1999 18.3147 65.0536 17.7213 65.017 17.1279L67.0471 16.6424C67.1385 17.6673 67.5409 18.4945 68.2541 19.1239C68.9674 19.7353 69.9184 20.041 71.1072 20.041C72.113 20.041 72.9177 19.8521 73.5213 19.4745C74.1431 19.0789 74.454 18.5305 74.454 17.8292C74.454 17.0739 74.1522 16.5345 73.5487 16.2108C72.9452 15.8871 71.9667 15.6803 70.6134 15.5904C69.0405 15.4825 67.8335 15.1229 66.9922 14.5115C66.1509 13.9001 65.7303 13.01 65.7303 11.8412V11.6793C65.7303 11.0499 65.8675 10.5015 66.1418 10.034C66.4161 9.54845 66.7819 9.14386 67.2391 8.82018C67.7146 8.4965 68.245 8.25375 68.8302 8.09191C69.4155 7.93007 70.0281 7.84915 70.6682 7.84915C71.5644 7.84915 72.3508 7.97502 73.0275 8.22677C73.7041 8.46054 74.2711 8.77522 74.7283 9.17083C75.1855 9.54845 75.533 9.98901 75.7708 10.4925C76.0268 10.996 76.1914 11.4995 76.2646 12.003L74.2345 12.4885C74.1431 11.6254 73.7864 10.951 73.1646 10.4655C72.5611 9.98002 71.7655 9.73726 70.778 9.73726C70.3939 9.73726 70.019 9.78222 69.6532 9.87213C69.3057 9.94406 68.9948 10.0609 68.7205 10.2228C68.4462 10.3846 68.2267 10.5914 68.0621 10.8432C67.8975 11.0769 67.8152 11.3556 67.8152 11.6793Z" fill="white"/>
<path d="M94.6256 15.0779C94.6256 16.1928 94.4336 17.1818 94.0495 18.045C93.6837 18.8901 93.1899 19.6094 92.5681 20.2028C91.9463 20.7782 91.2148 21.2188 90.3735 21.5245C89.5505 21.8302 88.6909 21.983 87.7948 21.983C86.8803 21.983 86.0116 21.8302 85.1886 21.5245C84.3657 21.2188 83.6432 20.7782 83.0214 20.2028C82.3996 19.6094 81.8967 18.8901 81.5126 18.045C81.1469 17.1818 80.964 16.1928 80.964 15.0779V14.7542C80.964 13.6573 81.1469 12.6863 81.5126 11.8412C81.8967 10.978 82.3996 10.2498 83.0214 9.65634C83.6615 9.06294 84.3931 8.61339 85.2161 8.30769C86.0391 8.002 86.8986 7.84915 87.7948 7.84915C88.6909 7.84915 89.5505 8.002 90.3735 8.30769C91.1965 8.61339 91.9189 9.06294 92.5407 9.65634C93.1808 10.2498 93.6837 10.978 94.0495 11.8412C94.4336 12.6863 94.6256 13.6573 94.6256 14.7542V15.0779ZM87.7948 19.987C88.4532 19.987 89.0567 19.8791 89.6054 19.6633C90.1723 19.4296 90.6661 19.0969 91.0867 18.6653C91.5074 18.2338 91.8366 17.7213 92.0743 17.1279C92.3121 16.5165 92.4309 15.8332 92.4309 15.0779V14.7542C92.4309 14.035 92.3121 13.3786 92.0743 12.7852C91.8366 12.1738 91.5074 11.6523 91.0867 11.2208C90.6661 10.7892 90.1723 10.4565 89.6054 10.2228C89.0384 9.97103 88.4349 9.84515 87.7948 9.84515C87.1547 9.84515 86.5511 9.97103 85.9842 10.2228C85.4173 10.4565 84.9235 10.7892 84.5028 11.2208C84.0822 11.6523 83.753 12.1738 83.5152 12.7852C83.2775 13.3786 83.1586 14.035 83.1586 14.7542V15.0779C83.1586 15.8332 83.2775 16.5165 83.5152 17.1279C83.753 17.7213 84.0822 18.2338 84.5028 18.6653C84.9235 19.0969 85.4081 19.4296 85.9568 19.6633C86.5237 19.8791 87.1364 19.987 87.7948 19.987Z" fill="white"/>
<path d="M98.5843 19.6633H103.522V4.66633H98.7489V2.72428H105.662V19.6633H110.6V21.6054H98.5843V19.6633Z" fill="white"/>
<path d="M116.945 15.5634C117 16.8941 117.421 17.964 118.207 18.7732C118.994 19.5824 120.091 19.987 121.499 19.987C122.139 19.987 122.697 19.9151 123.173 19.7712C123.648 19.6274 124.05 19.4296 124.38 19.1778C124.727 18.9261 125.001 18.6384 125.203 18.3147C125.422 17.973 125.596 17.6134 125.724 17.2358L127.754 17.7752C127.37 19.016 126.657 20.032 125.614 20.8232C124.59 21.5964 123.2 21.983 121.444 21.983C120.475 21.983 119.579 21.8212 118.756 21.4975C117.951 21.1558 117.256 20.6793 116.671 20.0679C116.086 19.4565 115.629 18.7283 115.299 17.8831C114.97 17.038 114.806 16.1029 114.806 15.0779V14.4306C114.806 13.4955 114.97 12.6234 115.299 11.8142C115.647 11.005 116.122 10.3127 116.726 9.73726C117.329 9.14386 118.033 8.68532 118.838 8.36164C119.661 8.01998 120.548 7.84915 121.499 7.84915C122.615 7.84915 123.575 8.05594 124.38 8.46953C125.203 8.86513 125.87 9.35964 126.382 9.95305C126.913 10.5465 127.297 11.1938 127.534 11.8951C127.79 12.5964 127.919 13.2438 127.919 13.8372V15.5634H116.945ZM121.499 9.84515C120.896 9.84515 120.329 9.94406 119.798 10.1419C119.286 10.3217 118.829 10.5824 118.427 10.9241C118.043 11.2657 117.723 11.6703 117.467 12.1379C117.229 12.5874 117.073 13.0819 117 13.6214H125.779C125.742 13.046 125.596 12.5245 125.34 12.0569C125.102 11.5894 124.782 11.1938 124.38 10.8701C123.996 10.5465 123.548 10.2947 123.035 10.1149C122.542 9.93507 122.03 9.84515 121.499 9.84515Z" fill="white"/>
<path d="M142 27H133.002V25.0175H139.435V1.98252H133.002V0H142V27Z" fill="white"/>
</svg>
